# xmcd CD database file generated by Grip 3.0.3
# 
# Track frame offsets:
#       150
#       22860
#       43199
#       63392
#       89487
#       107552
#       127957
#       154130
#       178830
#       203925
#       238740
# 
# Disc length: 3695 seconds
# 
# Revision: 2
# Processed by: cddbd v1.4PL0 Copyright (c) Steve Scherf et al.
# Submitted via: Grip 3.0.3
# 
DISCID=920e6d0b
DTITLE=H.I.M. - Love Metal
DYEAR=1900
DGENRE=Blues
TTITLE0=Buried Alive by Love
TTITLE1=The Funeral of Hearts
TTITLE2=Beyond Redemption
TTITLE3=Sweet Pandemonium
TTITLE4=Soul of Fire
TTITLE5=The Sacrament
TTITLE6=This Fortress of Love
TTITLE7=Circle of Fear
TTITLE8=Endless Dark
TTITLE9=The Path
TTITLE10=Love's Requiem
EXTD=
EXTT0=
EXTT1=
EXTT2=
EXTT3=
EXTT4=
EXTT5=
EXTT6=
EXTT7=
EXTT8=
EXTT9=
EXTT10=
PLAYORDER=
